<svg width="52" height="52" xmlns="http://www.w3.org/2000/svg">
 <g>
  <path fill="#2196F3" d="m26,16c-5.48829,0 -9.93749,4.47719 -9.93749,10c0,5.52273 4.4492,10 9.93749,10c5.48821,0 9.93749,-4.47727 9.93749,-10c0,-5.52281 -4.44928,-10 -9.93749,-10zm0,16.25l0,-12.5c3.42463,0 6.21093,2.80375 6.21093,6.25c0,3.44617 -2.7863,6.25 -6.21093,6.25zm0,6.25c1.37207,0 2.48437,1.1193 2.48437,2.5l0,2.5c0,1.3807 -1.1123,2.5 -2.48437,2.5s-2.48437,-1.1193 -2.48437,-2.5l0,-2.5c0,-1.3807 1.1123,-2.5 2.48437,-2.5zm0,-25c-1.37207,0 -2.48437,-1.1193 -2.48437,-2.5l0,-2.5c0,-1.3807 1.1123,-2.5 2.48437,-2.5s2.48437,1.1193 2.48437,2.5l0,2.5c0,1.3807 -1.1123,2.5 -2.48437,2.5zm17.39061,10c1.37215,0 2.48437,1.1193 2.48437,2.5s-1.11222,2.5 -2.48437,2.5l-2.48437,0c-1.37215,0 -2.48437,-1.1193 -2.48437,-2.5s1.11222,-2.5 2.48437,-2.5l2.48437,0zm-29.81248,2.5c0,1.3807 -1.1123,2.5 -2.48437,2.5l-2.48437,0c-1.37207,0 -2.48437,-1.1193 -2.48437,-2.5s1.1123,-2.5 2.48437,-2.5l2.48437,0c1.37207,0 2.48437,1.1193 2.48437,2.5zm24.71897,8.83883l1.75668,1.76789c0.97015,0.97617 0.97015,2.5593 0,3.53547c-0.97015,0.97625 -2.54322,0.97625 -3.51337,0l-1.75684,-1.76773c-0.97015,-0.97625 -0.97015,-2.5593 0,-3.53563c0.9703,-0.97625 2.5433,-0.97625 3.51353,0zm-24.59413,-17.67766l-1.75676,-1.76781c-0.97023,-0.97633 -0.97023,-2.55922 0,-3.53555s2.54322,-0.97633 3.51345,0l1.75676,1.76781c0.97023,0.97633 0.97023,2.55922 0,3.53555c-0.97023,0.97633 -2.54322,0.97633 -3.51345,0zm24.59413,0c-0.97015,0.97625 -2.54322,0.97625 -3.51353,0c-0.97015,-0.97633 -0.97015,-2.55922 0,-3.53555l1.75684,-1.76773c0.97015,-0.97633 2.54322,-0.97633 3.51337,0s0.97015,2.55922 0,3.53555l-1.75668,1.76773zm-24.59413,17.67766c0.97015,-0.97625 2.54322,-0.97625 3.51337,0c0.97023,0.97633 0.97023,2.55938 0,3.53563l-1.75668,1.76773c-0.97023,0.97625 -2.54322,0.97625 -3.51345,0c-0.97023,-0.97617 -0.97023,-2.5593 0,-3.53547l1.75676,-1.76789z"/>
 </g>
</svg>