<svg width="52" height="52" xmlns="http://www.w3.org/2000/svg">
 <g>
  <path fill="#2196F3" d="m15.5336,37.64097c-3.80499,-2.73914 -6.23994,-6.93917 -6.23994,-11.64954c0,-6.9629 5.32817,-12.79634 12.52964,-14.45961l0,-3.85181c-9.53184,1.73099 -16.70619,9.27169 -16.70619,18.31141c0,5.58627 2.74096,10.59554 7.08169,14.01913c3.35983,2.80047 5.44796,-0.93695 3.3348,-2.36958zm24.0915,-25.80359c-2.13937,-1.72913 -5.27186,1.07401 -3.2183,2.46264c3.84015,2.73834 6.29983,6.95837 6.29983,11.6914c0,6.96397 -5.32907,12.79847 -12.52994,14.46067l0,3.85261c9.53184,-1.73286 16.70619,-9.27249 16.70619,-18.31355c0,-5.65986 -2.81426,-10.72752 -7.25778,-14.15378l0,0.00001zm-15.95651,2.92258l6.79743,-3.6425c0.98894,-0.53007 0.99102,-1.39343 0.00536,-1.92724l-6.8603,-3.71556c-0.98685,-0.533 -1.78331,-0.13065 -1.77854,0.90149l0.03695,7.47511c0.00298,1.03161 0.80897,1.43876 1.7991,0.90869l0,0.00001zm4.72152,22.48318l-6.86119,3.71556c-0.98656,0.5338 -0.98447,1.3969 0.00566,1.92724l6.79683,3.64277c0.98894,0.529 1.79672,0.12319 1.80178,-0.90976l0.03576,-7.47484c0.00358,-1.03134 -0.79407,-1.43396 -1.77884,-0.90096l0,-0.00001z"/>
 </g>
</svg>