<svg width="52" height="52" xmlns="http://www.w3.org/2000/svg">
  <g>
   <path fill="#2196F3" d="m26,31.99935c3.4781,0 6.28571,-2.85461 6.28571,-6.39092c0,-2.38594 -1.2781,-4.47364 -3.14286,-5.5601l-20.34476,-11.97232l11.58667,20.40833c1.04762,2.0877 3.16381,3.515 5.61524,3.515m0,-27.69398c-3.79238,0 -7.33333,1.06515 -10.41333,2.812l4.4,2.57767c1.82286,-0.7243 3.9181,-1.12906 6.01333,-1.12906c9.26095,0 16.76191,7.62649 16.76191,17.04245c0,4.70798 -1.86476,8.96859 -4.90286,12.03623l-0.02095,0c-0.81714,0.83082 -0.81714,2.17291 0,3.00373c0.81714,0.83082 2.1581,0.83082 2.97524,0.0213c3.79238,-3.85585 6.13905,-9.18162 6.13905,-15.06126c0,-11.71668 -9.42857,-21.30306 -20.95238,-21.30306m-20.95238,21.30306c0,5.87964 2.34667,11.20541 6.13905,15.06126c0.81714,0.80952 2.13714,0.80952 2.95429,-0.0213c0.81714,-0.83082 0.81714,-2.17291 0,-3.00373c-3.0381,-3.08894 -4.90286,-7.32825 -4.90286,-12.03623c0,-2.13031 0.3981,-4.26061 1.13143,-6.17789l-2.53524,-4.47364c-1.73905,3.19546 -2.78667,6.77437 -2.78667,10.65153z"/>
  </g>
</svg>